<?xml version="1.0" encoding="utf-8"?>
<!-- Generator: Adobe Illustrator 24.1.1, SVG Export Plug-In . SVG Version: 6.00 Build 0)  -->
<svg version="1.1" id="Layer_1" xmlns="http://www.w3.org/2000/svg" xmlns:xlink="http://www.w3.org/1999/xlink" x="0px" y="0px"
	 viewBox="0 0 512 512" style="enable-background:new 0 0 512 512;" xml:space="preserve">
<g>
	<path d="M256,512l-11.2-12.6c-7-7-171.1-200.6-171.1-317C73.6,81.4,155,0,256,0s182.4,81.4,182.4,182.4
		c0,116.4-164.1,310-171.1,318.4L256,512z M256,28.1c-85.6,0-154.3,68.7-154.3,154.3c0,89.8,117.8,241.3,154.3,286.2
		c36.5-44.9,154.3-196.4,154.3-286.2C410.3,96.8,341.6,28.1,256,28.1z" fill='#ffbd39'/>
	<path d="M256,252.5c-39.3,0-70.1-30.9-70.1-70.1s30.9-70.1,70.1-70.1s70.1,30.9,70.1,70.1S295.3,252.5,256,252.5z M256,140.3
		c-23.8,0-42.1,18.2-42.1,42.1s18.2,42.1,42.1,42.1s42.1-18.2,42.1-42.1S279.8,140.3,256,140.3z" fill='#ffbd39'/>
</g>
</svg>
