<?xml version="1.0" encoding="utf-8"?>
<!-- Generator: Adobe Illustrator 24.1.1, SVG Export Plug-In . SVG Version: 6.00 Build 0)  -->
<svg version="1.1" id="Layer_1" xmlns="http://www.w3.org/2000/svg" xmlns:xlink="http://www.w3.org/1999/xlink" x="0px" y="0px"
	 viewBox="0 0 512 512" style="enable-background:new 0 0 512 512;" xml:space="preserve">
<style type="text/css">
	.st0{fill:#333333;}
</style>
<g id="XMLID_2_">
	<path id="XMLID_7_" class="st0" d="M499.5,84.1c1.8,1.8,2.7,4.5,2.7,6.3s-0.9,4.5-2.7,6.3L459.2,137c-5.4,5.4-11.6,8.1-19.7,8.1
		H54.6c-5.4,0-9-1.8-12.5-5.4c-3.6-3.6-5.4-8.1-5.4-12.5V53.7c0-5.4,1.8-9,5.4-12.5c3.6-3.6,8.1-5.4,12.5-5.4h164.7V17.9
		c0-5.4,1.8-9,5.4-12.5c3.6-3.6,8.1-5.4,12.5-5.4h36.7c5.4,0,9,1.8,12.5,5.4c3.6,3.6,5.4,8.1,5.4,12.5v17.9h146.8
		c8.1,0,14.3,2.7,19.7,8.1L499.5,84.1z M219.3,347.3h73.4v146.8c0,5.4-1.8,9-5.4,12.5c-3.6,3.6-8.1,5.4-12.5,5.4h-36.7
		c-5.4,0-9-1.8-12.5-5.4c-3.6-3.6-5.4-8.1-5.4-12.5V347.3H219.3z M457.4,219.3c5.4,0,9,1.8,12.5,5.4c3.6,3.6,5.4,8.1,5.4,12.5v73.4
		c0,5.4-1.8,9-5.4,12.5c-3.6,3.6-8.1,5.4-12.5,5.4H72.5c-8.1,0-14.3-2.7-19.7-8.1l-40.3-40.3c-1.8-1.8-2.7-4.5-2.7-6.3
		c0-2.7,0.9-4.5,2.7-6.3l40.3-40.3c5.4-5.4,11.6-8.1,19.7-8.1h146.8v-54.6h73.4v54.6C292.7,219.3,457.4,219.3,457.4,219.3z"/>
</g>
</svg>
