<?xml version="1.0" encoding="utf-8"?>
<!-- Generator: Adobe Illustrator 24.1.1, SVG Export Plug-In . SVG Version: 6.00 Build 0)  -->
<svg version="1.1" id="Layer_1" xmlns="http://www.w3.org/2000/svg" xmlns:xlink="http://www.w3.org/1999/xlink" x="0px" y="0px"
	 viewBox="0 0 512 512" style="enable-background:new 0 0 512 512;" xml:space="preserve">
<g id="XMLID_1_">
	<path id="XMLID_16_" d="M256,0C114.5,0,0,114.5,0,256s114.5,256,256,256s256-114.5,256-256S397.5,0,256,0z M30.7,270.9h88.4
		c0.9,30.7,6.5,61.4,15.8,90.3H56.8C41.9,334.2,32.6,303.5,30.7,270.9z M119.2,241.1H30.7c1.9-32.6,11.2-63.3,25.1-90.3H135
		C125.7,179.7,121,210.4,119.2,241.1z M166.6,150.8h177.8c10.2,28.9,15.8,59.6,16.8,90.3H149.9C150.8,210.4,156.4,179.7,166.6,150.8
		z M149.9,270.9h212.2c-1.9,30.7-7.4,61.4-17.7,90.3H166.6C156.4,332.3,150.8,301.6,149.9,270.9z M391,270.9h89.4
		c-1.9,32.6-11.2,63.3-25.1,90.3h-80.1C385.4,332.3,390.1,301.6,391,270.9z M391,241.1c-0.9-30.7-6.5-61.4-15.8-90.3h79.1
		c14.9,27,23.3,57.7,25.1,90.3H391z M436.6,120.1h-70.7c-12.1-28.9-27.9-55.9-46.5-81C365.8,53.1,406.8,81.9,436.6,120.1z
		 M272.8,30.7c25.1,27,44.7,56.8,59.6,89.4H178.7c14.9-32.6,34.4-62.4,59.6-89.4c5.6,0,12.1-0.9,17.7-0.9
		C261.6,29.8,267.2,30.7,272.8,30.7z M191.8,39.1c-18.6,25.1-34.4,52.1-46.5,81H75.4C104.3,81.9,145.2,53.1,191.8,39.1z M75.4,391.9
		h69.8c12.1,28.9,27.9,55.9,46.5,81C145.2,458.9,104.3,430.1,75.4,391.9z M238.3,481.3c-25.1-27-44.7-56.8-59.6-89.4h153.6
		c-14.9,32.6-34.4,62.4-59.6,89.4c-5.6,0-11.2,0.9-16.8,0.9C250.4,482.2,243.9,481.3,238.3,481.3z M318.4,472.9
		c19.5-25.1,35.4-53.1,46.5-81h70.7C406.8,430.1,365.8,458.9,318.4,472.9z"/>
</g>
</svg>
